<svg width="24" height="24" viewBox="0 0 24 24" fill="none" xmlns="http://www.w3.org/2000/svg">
<path d="M11.3062 0.0514545C10.0031 0.26708 8.75624 1.19052 8.16562 2.36708C7.78124 3.14052 7.68749 3.77802 7.68749 5.63427V6.84364H5.96718C4.89374 6.84364 4.17655 6.86239 4.06405 6.8952C3.83437 6.95614 3.53437 7.22802 3.47343 7.4202C3.4453 7.50458 3.25312 10.7108 3.04218 14.5546C2.61093 22.378 2.61562 21.8858 2.95312 22.5749C3.24843 23.1796 3.79687 23.6483 4.4953 23.8968C4.69218 23.9671 5.37655 23.9765 11.8125 23.9905C16.8 23.9999 19.0031 23.9905 19.2187 23.953C19.3875 23.9249 19.6922 23.8171 19.9031 23.7186C20.6062 23.3811 21.1547 22.6452 21.2859 21.8671C21.3375 21.5765 21.2953 20.6483 20.9578 14.6015C20.7469 10.7858 20.5547 7.57958 20.5266 7.47645C20.4609 7.23739 20.1844 6.96083 19.9453 6.8952C19.8234 6.86239 19.1391 6.84364 18.0141 6.84364H16.2656V5.3202C16.2656 3.63739 16.2375 3.38427 15.975 2.69989C15.675 1.92645 14.9859 1.10146 14.2406 0.64208C13.4109 0.121767 12.2672 -0.10792 11.3062 0.0514545ZM12.8578 1.86552C13.5891 2.1327 14.1984 2.76552 14.4469 3.51083C14.5406 3.79677 14.55 3.92802 14.5687 5.32958L14.5828 6.84364H12.0047H9.42187V5.44677C9.42187 4.43427 9.44062 3.97021 9.48749 3.7452C9.68437 2.82177 10.3969 2.07177 11.3437 1.79989C11.6719 1.70614 12.5203 1.73895 12.8578 1.86552Z" fill="#6B2695"/>
</svg>
