<svg width="56" height="48" viewBox="0 0 56 48" fill="none" xmlns="http://www.w3.org/2000/svg">
<path fill-rule="evenodd" clip-rule="evenodd" d="M22.0103 37.9798C30.8252 37.9798 37.8204 30.9575 37.8204 22.4796C37.8204 14.0017 30.8252 6.97943 22.0103 6.97943C13.1953 6.97943 6.20007 14.0017 6.20007 22.4796C6.20007 30.9575 13.1953 37.9798 22.0103 37.9798ZM22.0103 44.1799C34.1662 44.1799 44.0205 34.4643 44.0205 22.4796C44.0205 10.4949 34.1662 0.779358 22.0103 0.779358C9.85433 0.779358 0 10.4949 0 22.4796C0 34.4643 9.85433 44.1799 22.0103 44.1799Z" fill="#521378"/>
<path fill-rule="evenodd" clip-rule="evenodd" d="M41.8696 15.2292C42.4497 16.84 41.6141 18.6161 40.0033 19.1962C36.2223 20.5579 31.4977 23.2141 28.9922 26.5687C27.7904 28.1778 27.2077 29.7956 27.2881 31.4498C27.3686 33.1051 28.1348 35.2429 30.4808 37.8493C32.934 40.5749 34.7081 41.4413 35.8864 41.6447C36.9746 41.8325 38.098 41.5474 39.5412 40.5845C41.0579 39.5724 42.5682 38.0586 44.3873 36.2081C44.4313 36.1633 44.4755 36.1183 44.5199 36.0732C46.2041 34.3594 48.1539 32.3753 50.3118 30.8756C51.7178 29.8985 53.6496 30.2461 54.6267 31.652C55.6037 33.058 55.2561 34.9898 53.8502 35.9669C52.2023 37.1121 50.6218 38.7101 48.8088 40.5545L48.7235 40.6413C47.0353 42.3589 45.0971 44.3309 42.9824 45.7418C40.7585 47.2258 38.026 48.3057 34.8318 47.7544C31.7275 47.2186 28.7926 45.2416 25.8724 41.9971C22.845 38.6336 21.2628 35.1941 21.0954 31.7509C20.9279 28.3067 22.1978 25.3047 24.0247 22.8586C27.5766 18.1029 33.6136 14.9074 37.9025 13.3629C39.5134 12.7828 41.2895 13.6183 41.8696 15.2292Z" fill="#521378"/>
</svg>
