<svg width="56" height="48" viewBox="0 0 56 48" fill="none" xmlns="http://www.w3.org/2000/svg">
<path fill-rule="evenodd" clip-rule="evenodd" d="M22.0103 37.9798C30.8252 37.9798 37.8204 30.9575 37.8204 22.4796C37.8204 14.0017 30.8252 6.97943 22.0103 6.97943C13.1953 6.97943 6.20007 14.0017 6.20007 22.4796C6.20007 30.9575 13.1953 37.9798 22.0103 37.9798ZM22.0103 44.1799C34.1662 44.1799 44.0205 34.4643 44.0205 22.4796C44.0205 10.4949 34.1662 0.779358 22.0103 0.779358C9.85433 0.779358 0 10.4949 0 22.4796C0 34.4643 9.85433 44.1799 22.0103 44.1799Z" fill="white"/>
<path fill-rule="evenodd" clip-rule="evenodd" d="M41.8691 15.2292C42.4492 16.84 41.6136 18.6161 40.0028 19.1962C36.2218 20.5579 31.4972 23.2141 28.9917 26.5687C27.7899 28.1778 27.2072 29.7956 27.2876 31.4498C27.3681 33.1051 28.1343 35.2429 30.4803 37.8493C32.9335 40.5749 34.7076 41.4413 35.8859 41.6447C36.9741 41.8325 38.0975 41.5474 39.5407 40.5845C41.0574 39.5724 42.5677 38.0586 44.3868 36.2081C44.4308 36.1633 44.475 36.1183 44.5194 36.0732C46.2036 34.3594 48.1534 32.3753 50.3114 30.8756C51.7173 29.8985 53.6491 30.2461 54.6262 31.652C55.6033 33.058 55.2556 34.9898 53.8497 35.9669C52.2018 37.1121 50.6213 38.7101 48.8083 40.5545L48.723 40.6413C47.0348 42.3589 45.0966 44.3309 42.982 45.7418C40.7581 47.2258 38.0255 48.3057 34.8313 47.7544C31.7271 47.2186 28.7921 45.2416 25.8719 41.9971C22.8445 38.6336 21.2623 35.1941 21.0949 31.7509C20.9274 28.3067 22.1974 25.3047 24.0242 22.8586C27.5761 18.1029 33.6131 14.9074 37.9021 13.3629C39.5129 12.7828 41.289 13.6183 41.8691 15.2292Z" fill="white"/>
</svg>
