<svg width="40" height="41" viewBox="0 0 40 41" fill="none" xmlns="http://www.w3.org/2000/svg">
<path d="M18.2031 40.8542C14.3438 40.4792 10.7813 39.0574 7.65625 36.6511C6.13281 35.4792 4.15625 33.2761 3.01563 31.4792C2.52344 30.7058 1.5625 28.7371 1.21875 27.7996C0.835938 26.7527 0.421875 25.1433 0.21875 23.9011C-0.0234375 22.3777 -0.0234375 19.4871 0.21875 17.9636C0.570313 15.8074 1.125 14.073 2.07031 12.1433C3.10156 10.0417 4.17188 8.54956 5.89063 6.823C7.61719 5.10425 9.10938 4.03394 11.2109 3.00269C13.1406 2.05737 14.875 1.50269 17.0313 1.15112C18.5547 0.908936 21.4453 0.908936 22.9688 1.15112C25.125 1.50269 26.8594 2.05737 28.7891 3.00269C30.8906 4.03394 32.3828 5.10425 34.1094 6.823C35.8281 8.54956 36.8984 10.0417 37.9297 12.1433C38.6172 13.5417 38.9609 14.4558 39.3359 15.8621C39.8281 17.7371 39.9453 18.7605 39.9453 20.9324C39.9453 23.1042 39.8281 24.1277 39.3359 26.0027C38.9609 27.4089 38.6172 28.323 37.9297 29.7214C36.8984 31.823 35.8281 33.3152 34.1094 35.0417C32.3828 36.7605 30.8906 37.8308 28.7891 38.8621C26.8672 39.8074 25.0859 40.3699 23.0078 40.698C21.8594 40.8777 19.2969 40.9636 18.2031 40.8542ZM17.3438 30.7683C17.6094 30.6511 18.7109 29.5964 21.8984 26.4167C24.2109 24.1121 26.2188 22.0652 26.3516 21.8699C26.5781 21.5496 26.6016 21.4636 26.6016 20.9324C26.6016 20.4011 26.5781 20.3152 26.3516 19.9949C26.2188 19.7996 24.2109 17.7527 21.8984 15.448C17.4766 11.0339 17.3594 10.9402 16.6797 10.9324C16.3359 10.9324 15.6563 11.2136 15.4531 11.448C15.2266 11.7058 15 12.2839 15 12.6121C15 13.2839 15.1328 13.4402 18.9688 17.2839L22.6172 20.9324L18.9688 24.5886C15.1328 28.4246 15 28.5808 15 29.2527C15 29.5808 15.2266 30.1589 15.4531 30.4167C15.6563 30.6511 16.3359 30.9324 16.6797 30.9324C16.8516 30.9324 17.1484 30.8542 17.3438 30.7683Z" fill="#6B2695"/>
</svg>
