<svg width="40" height="41" viewBox="0 0 40 41" fill="none" xmlns="http://www.w3.org/2000/svg">
<path d="M21.7969 40.8542C25.6562 40.4792 29.2187 39.0574 32.3437 36.6511C33.8672 35.4792 35.8437 33.2761 36.9844 31.4792C37.4766 30.7058 38.4375 28.7371 38.7812 27.7996C39.1641 26.7527 39.5781 25.1433 39.7812 23.9011C40.0234 22.3777 40.0234 19.4871 39.7812 17.9636C39.4297 15.8074 38.875 14.073 37.9297 12.1433C36.8984 10.0417 35.8281 8.54956 34.1094 6.823C32.3828 5.10425 30.8906 4.03394 28.7891 3.00269C26.8594 2.05737 25.125 1.50269 22.9687 1.15112C21.4453 0.908936 18.5547 0.908936 17.0312 1.15112C14.875 1.50269 13.1406 2.05737 11.2109 3.00269C9.10937 4.03394 7.61718 5.10425 5.89062 6.823C4.17187 8.54956 3.10156 10.0417 2.07031 12.1433C1.38281 13.5417 1.03906 14.4558 0.664059 15.8621C0.171871 17.7371 0.0546837 18.7605 0.0546837 20.9324C0.0546837 23.1042 0.171871 24.1277 0.664059 26.0027C1.03906 27.4089 1.38281 28.323 2.07031 29.7214C3.10156 31.823 4.17187 33.3152 5.89062 35.0417C7.61718 36.7605 9.10937 37.8308 11.2109 38.8621C13.1328 39.8074 14.9141 40.3699 16.9922 40.698C18.1406 40.8777 20.7031 40.9636 21.7969 40.8542ZM22.6562 30.7683C22.3906 30.6511 21.2891 29.5964 18.1016 26.4167C15.7891 24.1121 13.7812 22.0652 13.6484 21.8699C13.4219 21.5496 13.3984 21.4636 13.3984 20.9324C13.3984 20.4011 13.4219 20.3152 13.6484 19.9949C13.7812 19.7996 15.7891 17.7527 18.1016 15.448C22.5234 11.0339 22.6406 10.9402 23.3203 10.9324C23.6641 10.9324 24.3437 11.2136 24.5469 11.448C24.7734 11.7058 25 12.2839 25 12.6121C25 13.2839 24.8672 13.4402 21.0312 17.2839L17.3828 20.9324L21.0312 24.5886C24.8672 28.4246 25 28.5808 25 29.2527C25 29.5808 24.7734 30.1589 24.5469 30.4167C24.3437 30.6511 23.6641 30.9324 23.3203 30.9324C23.1484 30.9324 22.8516 30.8542 22.6562 30.7683Z" fill="#6B2695"/>
</svg>
